<?xml version="1.0" encoding="UTF-8" standalone="no"?>
<svg
   xmlns:dc="http://purl.org/dc/elements/1.1/"
   xmlns:cc="http://creativecommons.org/ns#"
   xmlns:rdf="http://www.w3.org/1999/02/22-rdf-syntax-ns#"
   xmlns:svg="http://www.w3.org/2000/svg"
   xmlns="http://www.w3.org/2000/svg"
   xmlns:sodipodi="http://sodipodi.sourceforge.net/DTD/sodipodi-0.dtd"
   xmlns:inkscape="http://www.inkscape.org/namespaces/inkscape"
   viewBox="0 0 21.333333 21.333333"
   version="1.1"
   id="svg62"
   sodipodi:docname="puppet.svg"
   width="16pt"
   height="16pt"
   inkscape:version="1.0.2 (e86c870879, 2021-01-15)">
  <metadata
     id="metadata68">
    <rdf:RDF>
      <cc:Work
         rdf:about="">
        <dc:format>image/svg+xml</dc:format>
        <dc:type
           rdf:resource="http://purl.org/dc/dcmitype/StillImage" />
        <dc:title></dc:title>
      </cc:Work>
    </rdf:RDF>
  </metadata>
  <defs
     id="defs66" />
  <sodipodi:namedview
     pagecolor="#ffffff"
     bordercolor="#666666"
     borderopacity="1"
     objecttolerance="10"
     gridtolerance="10"
     guidetolerance="10"
     inkscape:pageopacity="0"
     inkscape:pageshadow="2"
     inkscape:window-width="1358"
     inkscape:window-height="734"
     id="namedview64"
     showgrid="false"
     inkscape:zoom="25.171875"
     inkscape:cx="10.666667"
     inkscape:cy="10.62694"
     inkscape:window-x="0"
     inkscape:window-y="0"
     inkscape:window-maximized="1"
     inkscape:current-layer="svg62"
     inkscape:document-units="pt"
     units="pt" />
  <g
     class=""
     transform="matrix(0.04487685,0,0,0.04490438,-0.83856885,-0.77181648)"
     id="g60"
     style="fill:#ffff00">
    <path
       d="m 257.406,17.188 c -25.61,0 -46.22,20.72 -46.22,46.593 0,25.875 20.61,46.595 46.22,46.595 25.61,0 46.25,-20.72 46.25,-46.594 0,-25.872 -20.64,-46.593 -46.25,-46.593 z m 122.78,37.937 -78.31,58.625 c 2.665,5.776 4.776,12.026 6.25,18.656 l 69,-51.656 3.062,-25.625 z m -255.342,1.28 8.875,27.407 64.186,39.376 c 2.513,-5.943 5.514,-11.462 8.938,-16.47 l -82,-50.312 z m 273.626,3.065 -3.095,26.28 41.438,52.625 c 4.674,-4.206 10.216,-7.468 16.312,-9.47 z m -291.94,1 -51.718,80 c 6.345,1.322 12.192,3.976 17.282,7.655 l 41.844,-64.72 -7.407,-22.936 z m 111.94,55.5 c -7.12,10.803 -12.285,24.91 -13.907,40.686 -2,19.438 1.785,37.464 9.062,50.563 7.277,13.098 17.574,20.998 29.28,22.218 11.708,1.22 23.405,-4.372 33.19,-15.688 9.783,-11.316 17.156,-28.218 19.155,-47.656 1.74,-16.923 -0.89,-32.787 -6.406,-45.25 -9.327,5.225 -20.04,8.22 -31.438,8.22 -14.59,0 -28.083,-4.874 -38.937,-13.095 z m 248.75,29.374 c -14.947,0 -26.876,11.93 -26.876,26.875 0,14.945 11.93,26.874 26.875,26.874 14.945,0 26.842,-11.93 26.842,-26.875 0,-14.947 -11.897,-26.876 -26.843,-26.876 z M 45.56,158.22 c -14.946,0 -26.874,11.896 -26.874,26.843 0,14.946 11.928,26.875 26.875,26.875 14.946,0 26.843,-11.93 26.843,-26.875 0,-14.947 -11.897,-26.844 -26.844,-26.844 z m 166.94,71.81 c -10.02,7.32 -16.327,17.48 -16.53,27.532 -0.185,9.06 3.95,16.745 11.655,22.625 7.705,5.88 19.014,9.51 32.03,8.75 26.036,-1.52 46.228,-20.007 46.595,-38.125 0.148,-7.302 -2.523,-13.71 -7.594,-19 -10.786,8.85 -23.713,13.758 -37.28,12.344 -11.08,-1.154 -20.883,-6.343 -28.876,-14.125 z m 69.906,62.5 c -9.156,6.97 -20.466,11.91 -32.72,14.033 l 47.783,81.125 15.874,-13.625 -30.938,-81.532 z m -81.687,5.564 -9.595,91.78 18.53,13.345 24.532,-95.5 c -12.492,-0.33 -24.01,-3.736 -33.468,-9.626 z m 125.124,89.844 -15.72,13.5 65.22,51.03 c 2.495,-9.733 8.156,-18.518 16.156,-24.78 z m -142.47,19.375 -55.905,29.75 c 4.933,6.162 8.355,13.66 9.53,22 0.09,0.648 0.156,1.29 0.22,1.937 l 64.56,-40.406 -18.405,-13.28 z M 419.28,436.75 c -0.773,0.01 -1.562,0.048 -2.342,0.125 -1.784,0.176 -3.558,0.514 -5.344,1.063 -14.29,4.384 -22.197,19.273 -17.813,33.562 4.385,14.29 19.275,22.197 33.564,17.813 14.29,-4.385 22.196,-19.274 17.812,-33.563 -3.596,-11.72 -14.268,-19.132 -25.875,-19 z m -327,1.78 c -1.355,-0.013 -2.736,0.087 -4.124,0.283 -14.8,2.084 -24.928,15.543 -22.844,30.343 2.085,14.8 15.544,24.928 30.344,22.844 14.8,-2.084 24.928,-15.544 22.844,-30.344 -1.824,-12.95 -12.355,-22.316 -24.875,-23.062 -0.447,-0.027 -0.892,-0.058 -1.344,-0.063 z"
       fill="#fc88fc"
       fill-opacity="1"
       id="path58"
       style="fill:#ffff00" />
  </g>
</svg>
